<svg width="22" height="25" viewBox="0 0 22 25" fill="none" xmlns="http://www.w3.org/2000/svg">
<path fill-rule="evenodd" clip-rule="evenodd" d="M10.1614 20.3227C15.7733 20.3227 20.3227 15.7733 20.3227 10.1614C20.3227 4.5494 15.7733 0 10.1614 0C4.5494 0 0 4.5494 0 10.1614C0 15.7733 4.5494 20.3227 10.1614 20.3227ZM10.1615 18.0647C14.5263 18.0647 18.0648 14.5262 18.0648 10.1614C18.0648 5.7965 14.5263 2.25807 10.1615 2.25807C5.7966 2.25807 2.25818 5.7965 2.25818 10.1614C2.25818 14.5262 5.7966 18.0647 10.1615 18.0647Z" fill="black"/>
<path d="M17.0428 16.9874L21.0876 21.7296C21.5915 22.3204 21.5211 23.2078 20.9303 23.7117C20.3395 24.2156 19.4521 24.1452 18.9482 23.5544L14.9034 18.8121L17.0428 16.9874Z" fill="black"/>
</svg>
