<svg width="145" height="34" viewBox="0 0 145 34" fill="none" xmlns="http://www.w3.org/2000/svg">
<path d="M51.2 7.48C51.8267 7.8 52.3067 8.24 52.64 8.8C52.9867 9.36 53.16 9.98667 53.16 10.68C53.16 11.3333 52.9867 11.94 52.64 12.5C52.3067 13.0467 51.84 13.48 51.24 13.8C51.9467 14.04 52.5333 14.48 53 15.12C53.4667 15.76 53.7 16.4667 53.7 17.24C53.7 17.9333 53.5267 18.5733 53.18 19.16C52.8333 19.7467 52.3733 20.2 51.8 20.52C51.5067 20.68 51.18 20.8 50.82 20.88C50.46 20.96 49.98 21 49.38 21H43.54V7.08H49.1C49.98 7.08 50.68 7.21333 51.2 7.48ZM50.88 13.22C51.36 12.98 51.74 12.6333 52.02 12.18C52.3 11.7267 52.44 11.2267 52.44 10.68C52.44 10.0667 52.28 9.53333 51.96 9.08C51.64 8.61333 51.2333 8.27333 50.74 8.06C50.3667 7.9 49.74 7.82 48.86 7.82H44.26V13.54H49.22C49.9133 13.54 50.4667 13.4333 50.88 13.22ZM51.36 19.96C51.8533 19.7067 52.2467 19.34 52.54 18.86C52.8333 18.3667 52.98 17.8333 52.98 17.26C52.98 16.66 52.8267 16.12 52.52 15.64C52.2133 15.1467 51.8 14.78 51.28 14.54C50.88 14.3533 50.34 14.26 49.66 14.26H44.26V20.28H49.4C49.9067 20.28 50.3067 20.2533 50.6 20.2C50.8933 20.1467 51.1467 20.0667 51.36 19.96ZM62.8247 7.08H63.6047L69.3247 21H68.5247L66.6447 16.4H59.7847L57.8847 21H57.1047L62.8247 7.08ZM60.0847 15.68H66.3447L63.2047 8.04L60.0847 15.68ZM72.5694 21V7.08H73.3494L83.0694 16.52V7.08H83.8094V21H83.0694V17.56L73.3094 8.04V21H72.5694ZM92.6741 7.08C93.6874 7.08 94.6207 7.33333 95.4741 7.84C96.3407 8.34667 97.0274 9.03333 97.5341 9.9C98.0407 10.7533 98.2941 11.6867 98.2941 12.7V15.38C98.2941 16.3933 98.0407 17.3333 97.5341 18.2C97.0274 19.0533 96.3407 19.7333 95.4741 20.24C94.6207 20.7467 93.6874 21 92.6741 21H87.5341V7.08H92.6741ZM97.5541 12.7C97.5541 11.82 97.3341 11.0067 96.8941 10.26C96.4541 9.51333 95.8541 8.92 95.0941 8.48C94.3474 8.04 93.5341 7.82 92.6541 7.82H88.2741V20.26H92.6541C93.5341 20.26 94.3474 20.04 95.0941 19.6C95.8541 19.16 96.4541 18.5667 96.8941 17.82C97.3341 17.0733 97.5541 16.26 97.5541 15.38V12.7ZM107.919 14.34C106.785 14.1133 105.859 13.8667 105.139 13.6C104.432 13.32 103.872 12.9467 103.459 12.48C103.059 12 102.859 11.3867 102.859 10.64C102.859 9.86667 103.059 9.18667 103.459 8.6C103.872 8.01333 104.445 7.56 105.179 7.24C105.925 6.92 106.785 6.76 107.759 6.76C108.692 6.76 109.545 6.96 110.319 7.36C111.105 7.74667 111.725 8.29333 112.179 9C112.632 9.70667 112.859 10.5133 112.859 11.42H112.119C112.119 10.6333 111.925 9.94 111.539 9.34C111.152 8.74 110.625 8.28 109.959 7.96C109.292 7.62667 108.552 7.46 107.739 7.46C107.019 7.46 106.345 7.57333 105.719 7.8C105.092 8.02667 104.579 8.37333 104.179 8.84C103.792 9.30667 103.599 9.89333 103.599 10.6C103.599 11.24 103.785 11.7533 104.159 12.14C104.532 12.5133 105.019 12.8 105.619 13C106.219 13.2 107.059 13.4133 108.139 13.64C109.232 13.8667 110.079 14.0867 110.679 14.3C111.292 14.5 111.805 14.84 112.219 15.32C112.645 15.8 112.859 16.4733 112.859 17.34C112.859 18.2067 112.625 18.94 112.159 19.54C111.705 20.1267 111.099 20.5667 110.339 20.86C109.579 21.1533 108.752 21.3 107.859 21.3C106.752 21.3 105.779 21.0933 104.939 20.68C104.099 20.2667 103.452 19.6867 102.999 18.94C102.559 18.18 102.339 17.3133 102.339 16.34H103.079C103.079 17.1933 103.265 17.94 103.639 18.58C104.025 19.22 104.579 19.72 105.299 20.08C106.019 20.4267 106.872 20.6 107.859 20.6C109.085 20.6 110.099 20.3067 110.899 19.72C111.712 19.1333 112.119 18.3333 112.119 17.32C112.119 16.6267 111.945 16.0933 111.599 15.72C111.252 15.3467 110.812 15.08 110.279 14.92C109.759 14.7467 108.972 14.5533 107.919 14.34ZM116.803 7.08H117.543V15.68C117.543 16.56 117.763 17.3733 118.203 18.12C118.643 18.8667 119.237 19.46 119.983 19.9C120.73 20.34 121.543 20.56 122.423 20.56C123.303 20.56 124.117 20.34 124.863 19.9C125.61 19.46 126.203 18.8667 126.643 18.12C127.083 17.3733 127.303 16.56 127.303 15.68V7.08H128.043V15.68C128.043 16.6933 127.79 17.6333 127.283 18.5C126.777 19.3533 126.09 20.0333 125.223 20.54C124.37 21.0467 123.437 21.3 122.423 21.3C121.41 21.3 120.47 21.0467 119.603 20.54C118.75 20.0333 118.07 19.3533 117.563 18.5C117.057 17.6333 116.803 16.6933 116.803 15.68V7.08ZM132.348 21H131.608V7.08H132.408L137.268 15.66L142.108 7.08H142.848V21H142.108V8.56L137.608 16.5H136.908L132.348 8.46V21Z" fill="black"/>
<g filter="url(#filter0_d_1_184)">
<rect x="5" y="12.1857" width="2.68505" height="5.93537" rx="1.34252" fill="url(#paint0_linear_1_184)"/>
<rect x="32.1331" y="11.6204" width="2.68505" height="5.93537" rx="1.34252" fill="url(#paint1_linear_1_184)"/>
<rect x="23.0886" y="10.3485" width="2.68505" height="8.4791" rx="1.34252" fill="url(#paint2_linear_1_184)"/>
<rect x="9.52222" y="7.23955" width="2.68505" height="14.8384" rx="1.34252" fill="url(#paint3_linear_1_184)"/>
<rect x="27.6108" y="7.23955" width="2.68505" height="14.8384" rx="1.34252" fill="url(#paint4_linear_1_184)"/>
<rect x="14.0444" y="3" width="2.68505" height="23.3175" rx="1.34252" fill="url(#paint5_linear_1_184)"/>
<rect x="18.5667" y="6.10901" width="2.68505" height="18.0888" rx="1.34252" fill="url(#paint6_linear_1_184)"/>
</g>
<defs>
<filter id="filter0_d_1_184" x="0" y="0" width="39.8181" height="33.3175" filterUnits="userSpaceOnUse" color-interpolation-filters="sRGB">
<feFlood flood-opacity="0" result="BackgroundImageFix"/>
<feColorMatrix in="SourceAlpha" type="matrix" values="0 0 0 0 0 0 0 0 0 0 0 0 0 0 0 0 0 0 127 0" result="hardAlpha"/>
<feOffset dy="2"/>
<feGaussianBlur stdDeviation="2.5"/>
<feComposite in2="hardAlpha" operator="out"/>
<feColorMatrix type="matrix" values="0 0 0 0 0 0 0 0 0 0 0 0 0 0 0 0 0 0 0.25 0"/>
<feBlend mode="normal" in2="BackgroundImageFix" result="effect1_dropShadow_1_184"/>
<feBlend mode="normal" in="SourceGraphic" in2="effect1_dropShadow_1_184" result="shape"/>
</filter>
<linearGradient id="paint0_linear_1_184" x1="6.33616" y1="14.5059" x2="6.58941" y2="18.3402" gradientUnits="userSpaceOnUse">
<stop/>
<stop offset="1" stop-color="#646464"/>
</linearGradient>
<linearGradient id="paint1_linear_1_184" x1="33.4692" y1="13.9406" x2="33.7225" y2="17.775" gradientUnits="userSpaceOnUse">
<stop/>
<stop offset="1" stop-color="#646464"/>
</linearGradient>
<linearGradient id="paint2_linear_1_184" x1="24.4248" y1="13.6631" x2="24.9393" y2="19.1161" gradientUnits="userSpaceOnUse">
<stop/>
<stop offset="1" stop-color="#646464"/>
</linearGradient>
<linearGradient id="paint3_linear_1_184" x1="10.8584" y1="13.04" x2="12.4059" y2="22.4123" gradientUnits="userSpaceOnUse">
<stop/>
<stop offset="1" stop-color="#646464"/>
</linearGradient>
<linearGradient id="paint4_linear_1_184" x1="28.947" y1="13.04" x2="30.4945" y2="22.4123" gradientUnits="userSpaceOnUse">
<stop/>
<stop offset="1" stop-color="#646464"/>
</linearGradient>
<linearGradient id="paint5_linear_1_184" x1="15.3806" y1="12.115" x2="19.0586" y2="26.29" gradientUnits="userSpaceOnUse">
<stop/>
<stop offset="1" stop-color="#646464"/>
</linearGradient>
<linearGradient id="paint6_linear_1_184" x1="19.9028" y1="13.1801" x2="22.1732" y2="24.4598" gradientUnits="userSpaceOnUse">
<stop/>
<stop offset="1" stop-color="#646464"/>
</linearGradient>
</defs>
</svg>
