<svg width="156" height="163" viewBox="0 0 156 163" fill="none" xmlns="http://www.w3.org/2000/svg">
<path d="M15.3 139.72C16.24 140.2 16.96 140.86 17.46 141.7C17.98 142.54 18.24 143.48 18.24 144.52C18.24 145.5 17.98 146.41 17.46 147.25C16.96 148.07 16.26 148.72 15.36 149.2C16.42 149.56 17.3 150.22 18 151.18C18.7 152.14 19.05 153.2 19.05 154.36C19.05 155.4 18.79 156.36 18.27 157.24C17.75 158.12 17.06 158.8 16.2 159.28C15.76 159.52 15.27 159.7 14.73 159.82C14.19 159.94 13.47 160 12.57 160H3.81V139.12H12.15C13.47 139.12 14.52 139.32 15.3 139.72ZM14.82 148.33C15.54 147.97 16.11 147.45 16.53 146.77C16.95 146.09 17.16 145.34 17.16 144.52C17.16 143.6 16.92 142.8 16.44 142.12C15.96 141.42 15.35 140.91 14.61 140.59C14.05 140.35 13.11 140.23 11.79 140.23H4.89V148.81H12.33C13.37 148.81 14.2 148.65 14.82 148.33ZM15.54 158.44C16.28 158.06 16.87 157.51 17.31 156.79C17.75 156.05 17.97 155.25 17.97 154.39C17.97 153.49 17.74 152.68 17.28 151.96C16.82 151.22 16.2 150.67 15.42 150.31C14.82 150.03 14.01 149.89 12.99 149.89H4.89V158.92H12.6C13.36 158.92 13.96 158.88 14.4 158.8C14.84 158.72 15.22 158.6 15.54 158.44ZM32.737 139.12H33.907L42.487 160H41.287L38.467 153.1H28.177L25.327 160H24.157L32.737 139.12ZM28.627 152.02H38.017L33.307 140.56L28.627 152.02ZM47.3541 160V139.12H48.5241L63.1041 153.28V139.12H64.2141V160H63.1041V154.84L48.4641 140.56V160H47.3541ZM77.5111 139.12C79.0311 139.12 80.4311 139.5 81.7111 140.26C83.0111 141.02 84.0411 142.05 84.8011 143.35C85.5611 144.63 85.9411 146.03 85.9411 147.55V151.57C85.9411 153.09 85.5611 154.5 84.8011 155.8C84.0411 157.08 83.0111 158.1 81.7111 158.86C80.4311 159.62 79.0311 160 77.5111 160H69.8011V139.12H77.5111ZM84.8311 147.55C84.8311 146.23 84.5011 145.01 83.8411 143.89C83.1811 142.77 82.2811 141.88 81.1411 141.22C80.0211 140.56 78.8011 140.23 77.4811 140.23H70.9111V158.89H77.4811C78.8011 158.89 80.0211 158.56 81.1411 157.9C82.2811 157.24 83.1811 156.35 83.8411 155.23C84.5011 154.11 84.8311 152.89 84.8311 151.57V147.55ZM100.378 150.01C98.6781 149.67 97.2881 149.3 96.2081 148.9C95.1481 148.48 94.3081 147.92 93.6881 147.22C93.0881 146.5 92.7881 145.58 92.7881 144.46C92.7881 143.3 93.0881 142.28 93.6881 141.4C94.3081 140.52 95.1681 139.84 96.2681 139.36C97.3881 138.88 98.6781 138.64 100.138 138.64C101.538 138.64 102.818 138.94 103.978 139.54C105.158 140.12 106.088 140.94 106.768 142C107.448 143.06 107.788 144.27 107.788 145.63H106.678C106.678 144.45 106.388 143.41 105.808 142.51C105.228 141.61 104.438 140.92 103.438 140.44C102.438 139.94 101.328 139.69 100.108 139.69C99.0281 139.69 98.0181 139.86 97.0781 140.2C96.1381 140.54 95.3681 141.06 94.7681 141.76C94.1881 142.46 93.8981 143.34 93.8981 144.4C93.8981 145.36 94.1781 146.13 94.7381 146.71C95.2981 147.27 96.0281 147.7 96.9281 148C97.8281 148.3 99.0881 148.62 100.708 148.96C102.348 149.3 103.618 149.63 104.518 149.95C105.438 150.25 106.208 150.76 106.828 151.48C107.468 152.2 107.788 153.21 107.788 154.51C107.788 155.81 107.438 156.91 106.738 157.81C106.058 158.69 105.148 159.35 104.008 159.79C102.868 160.23 101.628 160.45 100.288 160.45C98.6281 160.45 97.1681 160.14 95.9081 159.52C94.6481 158.9 93.6781 158.03 92.9981 156.91C92.3381 155.77 92.0081 154.47 92.0081 153.01H93.1181C93.1181 154.29 93.3981 155.41 93.9581 156.37C94.5381 157.33 95.3681 158.08 96.4481 158.62C97.5281 159.14 98.8081 159.4 100.288 159.4C102.128 159.4 103.648 158.96 104.848 158.08C106.068 157.2 106.678 156 106.678 154.48C106.678 153.44 106.418 152.64 105.898 152.08C105.378 151.52 104.718 151.12 103.918 150.88C103.138 150.62 101.958 150.33 100.378 150.01ZM113.705 139.12H114.815V152.02C114.815 153.34 115.145 154.56 115.805 155.68C116.465 156.8 117.355 157.69 118.475 158.35C119.595 159.01 120.815 159.34 122.135 159.34C123.455 159.34 124.675 159.01 125.795 158.35C126.915 157.69 127.805 156.8 128.465 155.68C129.125 154.56 129.455 153.34 129.455 152.02V139.12H130.565V152.02C130.565 153.54 130.185 154.95 129.425 156.25C128.665 157.53 127.635 158.55 126.335 159.31C125.055 160.07 123.655 160.45 122.135 160.45C120.615 160.45 119.205 160.07 117.905 159.31C116.625 158.55 115.605 157.53 114.845 156.25C114.085 154.95 113.705 153.54 113.705 152.02V139.12ZM137.022 160H135.912V139.12H137.112L144.402 151.99L151.662 139.12H152.772V160H151.662V141.34L144.912 153.25H143.862L137.022 141.19V160Z" fill="black"/>
<g filter="url(#filter0_d_9_113)">
<rect x="19" y="39.6364" width="10.8056" height="23.6727" rx="5.40281" fill="url(#paint0_linear_9_113)"/>
<rect x="128.194" y="37.3818" width="10.8056" height="23.6727" rx="5.40281" fill="url(#paint1_linear_9_113)"/>
<rect x="91.7964" y="32.3089" width="10.8056" height="33.8182" rx="5.40281" fill="url(#paint2_linear_9_113)"/>
<rect x="37.198" y="19.9091" width="10.8056" height="59.1818" rx="5.40281" fill="url(#paint3_linear_9_113)"/>
<rect x="109.994" y="19.9091" width="10.8056" height="59.1818" rx="5.40281" fill="url(#paint4_linear_9_113)"/>
<rect x="55.3982" y="3" width="10.8056" height="93" rx="5.40281" fill="url(#paint5_linear_9_113)"/>
<rect x="73.5962" y="15.4" width="10.8056" height="72.1455" rx="5.40281" fill="url(#paint6_linear_9_113)"/>
</g>
<defs>
<filter id="filter0_d_9_113" x="14" y="0" width="130" height="103" filterUnits="userSpaceOnUse" color-interpolation-filters="sRGB">
<feFlood flood-opacity="0" result="BackgroundImageFix"/>
<feColorMatrix in="SourceAlpha" type="matrix" values="0 0 0 0 0 0 0 0 0 0 0 0 0 0 0 0 0 0 127 0" result="hardAlpha"/>
<feOffset dy="2"/>
<feGaussianBlur stdDeviation="2.5"/>
<feComposite in2="hardAlpha" operator="out"/>
<feColorMatrix type="matrix" values="0 0 0 0 0 0 0 0 0 0 0 0 0 0 0 0 0 0 0.25 0"/>
<feBlend mode="normal" in2="BackgroundImageFix" result="effect1_dropShadow_9_113"/>
<feBlend mode="normal" in="SourceGraphic" in2="effect1_dropShadow_9_113" result="shape"/>
</filter>
<linearGradient id="paint0_linear_9_113" x1="24.3772" y1="48.8903" x2="25.3783" y2="64.1845" gradientUnits="userSpaceOnUse">
<stop/>
<stop offset="1" stop-color="#646464"/>
</linearGradient>
<linearGradient id="paint1_linear_9_113" x1="133.572" y1="46.6357" x2="134.573" y2="61.93" gradientUnits="userSpaceOnUse">
<stop/>
<stop offset="1" stop-color="#646464"/>
</linearGradient>
<linearGradient id="paint2_linear_9_113" x1="97.1736" y1="45.5287" x2="99.2076" y2="67.2811" gradientUnits="userSpaceOnUse">
<stop/>
<stop offset="1" stop-color="#646464"/>
</linearGradient>
<linearGradient id="paint3_linear_9_113" x1="42.5752" y1="43.0439" x2="48.6951" y2="80.4419" gradientUnits="userSpaceOnUse">
<stop/>
<stop offset="1" stop-color="#646464"/>
</linearGradient>
<linearGradient id="paint4_linear_9_113" x1="115.372" y1="43.0439" x2="121.491" y2="80.4419" gradientUnits="userSpaceOnUse">
<stop/>
<stop offset="1" stop-color="#646464"/>
</linearGradient>
<linearGradient id="paint5_linear_9_113" x1="60.7754" y1="39.3545" x2="75.33" y2="95.9538" gradientUnits="userSpaceOnUse">
<stop/>
<stop offset="1" stop-color="#646464"/>
</linearGradient>
<linearGradient id="paint6_linear_9_113" x1="78.9734" y1="43.6023" x2="87.9541" y2="88.6216" gradientUnits="userSpaceOnUse">
<stop/>
<stop offset="1" stop-color="#646464"/>
</linearGradient>
</defs>
</svg>
